<svg xmlns="http://www.w3.org/2000/svg" viewBox="0 0 503.88 480.34"><defs><style>.cls-1{fill:#ffcc80;}.cls-2{fill:#ffb74d;}</style></defs><title>hand</title><g id="Слой_2" data-name="Слой 2"><g id="Capa_1" data-name="Capa 1"><path class="cls-1" d="M48.74,432.13a128.81,128.81,0,0,1-38-90.89l-.11-53.4a106.53,106.53,0,0,1,31.24-75.48L236.52,16.94a21.34,21.34,0,0,1,30.17-.05,49.35,49.35,0,0,1,4.65,64.25l-64.71,86.71,248.9-.47a37.71,37.71,0,0,1,.15,75.42l-135.77.26a37.72,37.72,0,0,1,.14,75.42l-15.08,0a37.72,37.72,0,0,1,.14,75.43L290,394a37.8,37.8,0,0,1,26.26,10.51l.15.15a37.22,37.22,0,0,1,11.37,27,37.72,37.72,0,0,1-37.64,37.78l-150.55.28A128.29,128.29,0,0,1,48.74,432.13Z"/><path class="cls-2" d="M259.59,250.72a11.58,11.58,0,0,1-3.34-7.54l63.66-.12a38,38,0,0,1,26.42,10.66l-79.35.15A11.43,11.43,0,0,1,259.59,250.72Z"/><path class="cls-2" d="M259.73,326.14a11.52,11.52,0,0,1-3.33-7.54l48.57-.09a38,38,0,0,1,26.42,10.66l-64.26.13A11.49,11.49,0,0,1,259.73,326.14Z"/><path class="cls-2" d="M279.17,394,290,394a37.79,37.79,0,0,1,26.26,10.51l-26.39.2A10.87,10.87,0,0,1,279.17,394Z"/><path d="M34.18,204.82,228.84,9.42a32,32,0,0,1,45.26-.09,60.17,60.17,0,0,1,5.7,78.25l-52,69.56,227.57-.42A48.44,48.44,0,0,1,503.88,205a49.55,49.55,0,0,1-48.29,48.47l-95.65.2A48.33,48.33,0,0,1,347,320.8a47.19,47.19,0,0,1-5.84,3.39,48.08,48.08,0,0,1,12.11,31.94,49.35,49.35,0,0,1-27.07,43.56,48.35,48.35,0,0,1-36.16,80.37l-150.33.28A139.42,139.42,0,0,1,.07,341.19h0L0,287.82A118.13,118.13,0,0,1,34.18,204.82Zm440.47,19.36A27,27,0,0,0,455.48,178l-248.9.46A10.66,10.66,0,0,1,198,161.39l64.75-86.66a38.73,38.73,0,0,0-3.67-50.36,10.66,10.66,0,0,0-15.09,0L49.27,219.86a96.77,96.77,0,0,0-28.05,68l.1,53.34A118.11,118.11,0,0,0,139.63,459.08L290,458.73a27.05,27.05,0,1,0,.75-54.1h-.85l-22.63,0a10.67,10.67,0,0,1,0-21.33l37.72-.07a27,27,0,0,0-.1-54.09l-37.72.07a10.67,10.67,0,0,1,0-21.33l52.8-.1a27.73,27.73,0,0,0,27-27.1,27,27,0,0,0-27.09-27l-52.8.09a10.67,10.67,0,1,1-.41-21.33H267l188.56-.35A26.88,26.88,0,0,0,474.65,224.18Z"/></g></g></svg>