<svg id="Capa_1" enable-background="new 0 0 512 512" height="512" viewBox="0 0 512 512" width="512" xmlns="http://www.w3.org/2000/svg" xmlns:xlink="http://www.w3.org/1999/xlink"><radialGradient id="SVGID_1_" cx="72.638" cy="63.551" gradientTransform="matrix(.707 -.707 .553 .553 -13.887 79.752)" gradientUnits="userSpaceOnUse" r="226.024"><stop offset=".0132" stop-color="#fffbe4"/><stop offset=".6064" stop-color="#f9efaf"/><stop offset=".7207" stop-color="#f9eeab"/><stop offset=".8394" stop-color="#f8ec9e"/><stop offset=".9597" stop-color="#f7e98a"/><stop offset="1" stop-color="#f6e781"/></radialGradient><radialGradient id="SVGID_2_" cx="-18.307" cy="255.964" gradientTransform="matrix(1 0 0 .66 0 86.958)" gradientUnits="userSpaceOnUse" r="405.566"><stop offset="0" stop-color="#f6e266"/><stop offset=".1349" stop-color="#f5dc60"/><stop offset=".3156" stop-color="#f0cb51"/><stop offset=".5216" stop-color="#e9af37"/><stop offset=".5854" stop-color="#e7a52e"/><stop offset="1" stop-color="#e7a52e"/></radialGradient><radialGradient id="SVGID_3_" cx="334.494" cy="267.854" gradientUnits="userSpaceOnUse" r="373.342"><stop offset="0" stop-color="#f6e266"/><stop offset=".377" stop-color="#f4dd45"/><stop offset=".4963" stop-color="#f2d340"/><stop offset=".6976" stop-color="#ecb934"/><stop offset=".8996" stop-color="#e49824"/></radialGradient><radialGradient id="SVGID_4_" cx="393.64" cy="340.915" gradientTransform="matrix(1 0 0 .624 0 128.171)" gradientUnits="userSpaceOnUse" r="269.568"><stop offset="0" stop-color="#f6e266"/><stop offset=".4319" stop-color="#f4dd45"/><stop offset=".5386" stop-color="#f2d340"/><stop offset=".7188" stop-color="#ecb934"/><stop offset=".8996" stop-color="#e49824"/></radialGradient><radialGradient id="SVGID_5_" cx="276.485" cy="1455.048" gradientTransform="matrix(.931 0 0 .112 -2.094 298.75)" gradientUnits="userSpaceOnUse" r="234.348"><stop offset="0" stop-color="#ecb780"/><stop offset=".3347" stop-color="#faddb9"/><stop offset=".4962" stop-color="#ffecd0"/><stop offset=".888" stop-color="#fff"/></radialGradient><radialGradient id="SVGID_6_" cx="375.199" cy="164.237" gradientTransform="matrix(.966 -.259 .113 .423 12.741 416.886)" gradientUnits="userSpaceOnUse" r="156.686"><stop offset="0" stop-color="#d8aa8b"/><stop offset=".2127" stop-color="#cc9772"/><stop offset=".5905" stop-color="#b16e3d"/><stop offset=".6258" stop-color="#ad6b3b"/><stop offset="1" stop-color="#804f2b"/></radialGradient><radialGradient id="SVGID_7_" cx="273.164" cy="123.491" gradientTransform="matrix(1 0 0 .558 0 54.622)" gradientUnits="userSpaceOnUse" r="161.166"><stop offset="0" stop-color="#dfdde2"/><stop offset=".0999" stop-color="#cdcad0"/><stop offset=".3019" stop-color="#9f9aa0"/><stop offset=".5225" stop-color="#665e66"/><stop offset=".6964" stop-color="#5e565e"/><stop offset=".972" stop-color="#474247"/><stop offset=".9894" stop-color="#454045"/></radialGradient><radialGradient id="SVGID_8_" cx="44.742" cy="128.5" gradientTransform="matrix(1 0 0 1.046 0 -5.903)" gradientUnits="userSpaceOnUse" r="163.771"><stop offset="0" stop-color="#dfdde2"/><stop offset=".1026" stop-color="#cdcad0"/><stop offset=".3089" stop-color="#9f9aa2"/><stop offset=".478" stop-color="#756e78"/><stop offset=".692" stop-color="#665f69"/><stop offset=".9894" stop-color="#544f57"/></radialGradient><radialGradient id="SVGID_9_" cx="134.229" cy="151.777" gradientTransform="matrix(.96 .279 -.253 .871 43.781 -17.949)" gradientUnits="userSpaceOnUse" r="442.215"><stop offset=".1044" stop-color="#544f57"/><stop offset=".6862" stop-color="#665e66"/><stop offset=".7956" stop-color="#6f6770"/><stop offset=".9815" stop-color="#887e8b"/><stop offset="1" stop-color="#8b818e"/></radialGradient><linearGradient id="lg1"><stop offset="0" stop-color="#dfdde2"/><stop offset=".3811" stop-color="#7a767d"/><stop offset=".5191" stop-color="#544f57"/><stop offset=".6816" stop-color="#5a545d"/><stop offset=".8909" stop-color="#6a636d"/><stop offset="1" stop-color="#756e78"/></linearGradient><radialGradient id="SVGID_10_" cx="143.549" cy="127.113" gradientTransform="matrix(1 0 0 .723 0 35.2)" gradientUnits="userSpaceOnUse" r="201.439" xlink:href="#lg1"/><radialGradient id="SVGID_11_" cx="361.603" cy="127.113" gradientTransform="matrix(1 0 0 .723 0 35.2)" gradientUnits="userSpaceOnUse" r="201.439" xlink:href="#lg1"/><g><path d="m293.01 23.082h-74.02c-120.945 0-218.99 98.045-218.99 218.99l89.659 24.005z" fill="url(#SVGID_1_)"/><path d="m74.02 242.072h-74.02c0 120.945 98.045 218.99 218.99 218.99h74.02z" fill="url(#SVGID_2_)"/><circle cx="293.01" cy="242.072" fill="url(#SVGID_3_)" r="218.99"/><path d="m492.13 150.796c-50.684-7.199-109.396-7.739-154.61-4.084-13.601 1.099-25.438 7.609-33.625 17.584-4.089 4.975-9.993 8.082-16.382 8.401-6.391-.318-12.296-3.425-16.386-8.401-.022-.027-.044-.053-.065-.08-8.443-10.225-20.349-16.438-33.56-17.505-41.143-3.325-94.962-3.285-142.894 2.542-9.787 20.884-16.374 43.568-19.129 67.418 1.406 1.906 2.337 4.176 2.636 6.631l4.15 33.998c2.849 23.339 21.883 41.851 45.26 44.014 32.639 3.022 72.644 2.741 102.246 0 23.376-2.164 42.411-20.675 45.26-44.014l4.198-34.394c.006-.051.013-.101.019-.151 1.257-9.457 15.269-9.457 16.526 0 .007.05.013.101.019.151l4.198 34.394c2.849 23.339 21.883 41.851 45.26 44.014 29.608 2.741 70.68 2.923 102.246 0 23.377-2.164 42.411-20.675 45.26-44.014l4.224-34.608c.676-5.541 4.835-9.81 10.228-11.253.934-.25 1.775-.697 2.481-1.29-3.05-20.886-9.049-40.816-17.56-59.353z" fill="url(#SVGID_4_)"/><path d="m258.279 488.918c125.572 0 227.368-12.472 227.368-27.856h-454.736c0 15.385 101.796 27.856 227.368 27.856z" fill="url(#SVGID_5_)"/><path d="m425.81 298.982c-24.763 32.893-58.807 57.38-99.624 68.316-15.825 4.24-31.785 6.201-47.606 6.081-5.125-.039-9.627 3.385-10.953 8.336-1.754 6.546 2.63 13.147 9.343 14.074 18.397 2.541 37.285 1.56 55.93-3.436 45.692-12.243 80.59-46.089 98.969-89.874 1.597-3.805-3.576-6.795-6.059-3.497z" fill="url(#SVGID_6_)"/><path d="m287.51 157.698c6.39-.318 12.294-3.426 16.384-8.401.022-.027.044-.053.066-.08 8.443-10.225 20.349-16.438 33.56-17.505 17.623-1.424 35.523-2.146 53.204-2.146 1.878 0 5.647.025 5.647.025l-82.336 41.46-25.436-13.326c-.365 0-.728-.009-1.089-.027zm19.998 25.898-19.998 13.161c4.411 1.942 7.665 6.095 8.282 11.15l4.198 34.394c2.849 23.339 21.883 41.851 45.26 44.014 15.055 1.394 30.354 2.1 45.473 2.1 1.881 0 3.765-.011 5.65-.033z" fill="url(#SVGID_7_)"/><path d="m178.649 129.591c-1.886-.016-3.771-.025-5.653-.025-34.646 0-70.919 2.779-104.627 8.489-3.096.524-5.35 3.227-5.35 6.367v45.736c0 2.892 1.881 5.527 4.68 6.254 5.588 1.45 9.715 6.169 10.414 11.892l4.15 33.998c2.849 23.339 21.883 41.851 45.26 44.014 15.054 1.394 30.354 2.1 45.472 2.1 1.881 0 3.765-.011 5.65-.033z" fill="url(#SVGID_8_)"/><path d="m506.651 138.054c-33.707-5.71-69.981-8.489-104.627-8.489-17.68 0-35.581.722-53.204 2.146-13.211 1.067-25.117 7.28-33.56 17.505-.022.026-.044.053-.065.079-4.321 5.256-10.668 8.429-17.472 8.429h-9.125c-6.804 0-13.151-3.172-17.472-8.429-.022-.027-.044-.053-.065-.079-8.443-10.225-20.349-16.438-33.56-17.505-17.623-1.424-35.523-2.146-53.204-2.146-34.646 0-70.919 2.779-104.627 8.489-3.096.524-5.35 3.227-5.35 6.367v45.736c0 2.892 1.881 5.527 4.68 6.254 5.588 1.45 9.715 6.169 10.414 11.892l4.15 33.998c2.849 23.339 21.883 41.851 45.26 44.014 15.054 1.394 30.354 2.1 45.472 2.1 15.119 0 30.418-.706 45.473-2.1 23.376-2.164 42.411-20.675 45.26-44.014l4.198-34.394c.86-7.042 6.838-12.335 13.933-12.335 7.094 0 13.073 5.293 13.932 12.335l4.198 34.394c2.849 23.339 21.883 41.851 45.26 44.014 15.055 1.394 30.354 2.1 45.473 2.1s30.418-.706 45.472-2.1c23.377-2.164 42.412-20.675 45.26-44.014l4.213-34.512c.681-5.576 4.853-9.878 10.272-11.357 2.808-.767 4.759-3.318 4.759-6.232v-45.778c.001-3.141-2.252-5.843-5.348-6.368z" fill="url(#SVGID_9_)"/><path d="m228.275 270.172c-29.256 2.708-58.701 2.708-87.957 0-15.962-1.478-28.719-13.923-30.661-29.835l-6.847-56.097c-2.236-18.319 11.194-34.881 29.589-36.368 34.542-2.791 69.253-2.791 103.795 0 18.395 1.487 31.825 18.049 29.589 36.368l-6.847 56.097c-1.942 15.911-14.699 28.357-30.661 29.835z" fill="url(#SVGID_10_)"/><path d="m446.329 270.172c-29.256 2.708-58.701 2.708-87.957 0-15.962-1.478-28.719-13.923-30.661-29.835l-6.847-56.097c-2.236-18.319 11.194-34.881 29.589-36.368 34.542-2.791 69.253-2.791 103.795 0 18.395 1.487 31.825 18.049 29.589 36.368l-6.847 56.097c-1.942 15.911-14.699 28.357-30.661 29.835z" fill="url(#SVGID_11_)"/></g></svg>