<?xml version="1.0" encoding="iso-8859-1"?>
<!-- Generator: Adobe Illustrator 19.0.0, SVG Export Plug-In . SVG Version: 6.00 Build 0)  -->
<svg version="1.1" id="Layer_1" xmlns="http://www.w3.org/2000/svg" xmlns:xlink="http://www.w3.org/1999/xlink" x="0px" y="0px"
	 viewBox="0 0 512 512" style="enable-background:new 0 0 512 512;" xml:space="preserve">
<path style="fill:#F5AA2C;" d="M422.953,445.647h-58.131c-16.366,0-24.652-19.873-13.04-31.483l58.131-58.133
	c11.572-11.573,31.483-3.379,31.483,13.04v58.133C441.395,437.389,433.138,445.647,422.953,445.647z"/>
<path style="fill:#FFD76E;" d="M269.404,445.647H18.443C8.257,445.647,0,437.389,0,427.204V22.694
	C0,12.509,8.257,4.251,18.443,4.251h404.51c10.185,0,18.443,8.257,18.443,18.443v250.978c0,4.892-1.944,9.583-5.402,13.041
	L282.445,440.247C278.985,443.704,274.295,445.647,269.404,445.647z"/>
<g>
	<path style="fill:#F5AA2C;" d="M422.953,4.251h-202.87v441.395h49.321c4.891,0,9.582-1.943,13.04-5.401l153.549-153.532
		c3.459-3.459,5.402-8.15,5.402-13.041V22.694C441.395,12.509,433.138,4.251,422.953,4.251z"/>
	<path style="fill:#F5AA2C;" d="M297.542,141.957H142.624c-10.185,0-18.443-8.257-18.443-18.443s8.257-18.443,18.443-18.443h154.919
		c10.185,0,18.443,8.257,18.443,18.443S307.727,141.957,297.542,141.957z"/>
	<path style="fill:#F5AA2C;" d="M328.28,209.58H111.886c-10.185,0-18.443-8.257-18.443-18.443s8.257-18.443,18.443-18.443H328.28
		c10.185,0,18.443,8.257,18.443,18.443S338.465,209.58,328.28,209.58z"/>
	<path style="fill:#F5AA2C;" d="M328.28,277.203H111.886c-10.185,0-18.443-8.257-18.443-18.443c0-10.185,8.257-18.443,18.443-18.443
		H328.28c10.185,0,18.443,8.257,18.443,18.443C346.723,268.946,338.465,277.203,328.28,277.203z"/>
</g>
<g>
	<path style="fill:#EB9A2A;" d="M297.542,105.072h-77.459v36.885h77.459c10.185,0,18.443-8.257,18.443-18.443
		S307.727,105.072,297.542,105.072z"/>
	<path style="fill:#EB9A2A;" d="M328.28,172.695H220.083v36.885H328.28c10.185,0,18.443-8.257,18.443-18.443
		S338.465,172.695,328.28,172.695z"/>
	<path style="fill:#EB9A2A;" d="M328.28,240.318H220.083v36.885H328.28c10.185,0,18.443-8.257,18.443-18.443
		C346.723,248.575,338.465,240.318,328.28,240.318z"/>
</g>
<path style="fill:#48AEE2;" d="M236.947,485.678l11.926-59.644c0.714-3.57,2.469-6.85,5.045-9.424L385.12,285.432
	c7.202-7.201,18.879-7.2,26.08,0.001l47.693,47.693c7.202,7.201,7.202,18.894,0,26.095L327.692,490.411
	c-2.575,2.575-5.854,4.329-9.423,5.043L258.65,507.38C245.713,509.967,234.377,498.527,236.947,485.678z"/>
<path style="fill:#4390CB;" d="M506.6,285.423l-47.693-47.705c-7.199-7.2-18.885-7.204-26.088,0.001l-47.7,47.714l-13.043,13.04
	c7.919,7.919,64.408,64.408,73.782,73.782l13.035-13.034c0.044-0.044,0.082-0.095,0.127-0.14l47.578-47.578
	C513.8,304.301,513.801,292.625,506.6,285.423z"/>
<g>
</g>
<g>
</g>
<g>
</g>
<g>
</g>
<g>
</g>
<g>
</g>
<g>
</g>
<g>
</g>
<g>
</g>
<g>
</g>
<g>
</g>
<g>
</g>
<g>
</g>
<g>
</g>
<g>
</g>
</svg>
