<svg height="512pt" viewBox="-61 0 512 512" width="512pt" xmlns="http://www.w3.org/2000/svg"><path d="m360 226v96.398438c0 74.402343-50.398438 138.902343-122.402344 156.902343-3.296875.898438-6.296875 2.398438-8.398437 4.800781l-23.699219 23.398438c-2.699219 3-6.601562 4.5-10.5 4.5s-7.800781-1.5-10.5-4.5l-23.699219-23.398438c-2.101562-2.402343-5.101562-3.902343-8.398437-4.800781-72.003906-18-122.402344-82.5-122.402344-156.902343v-96.398438c0-8.402344 6.597656-15 15-15h300c8.402344 0 15 6.597656 15 15zm0 0" fill="#ffbd86"/><path d="m360 226v96.398438c0 74.402343-50.398438 138.902343-122.402344 156.902343-3.296875.898438-6.296875 2.398438-8.398437 4.800781l-23.699219 23.398438c-2.699219 3-6.601562 4.5-10.5 4.5v-301h150c8.402344 0 15 6.597656 15 15zm0 0" fill="#f6a96c"/><path d="m219.390625 421.546875c-6.726563 0-12.832031-4.542969-14.53125-11.367187-2.019531-8.027344 2.871094-16.171876 10.914063-18.179688 31.929687-7.984375 54.226562-36.546875 54.226562-69.464844 0-8.289062 6.710938-15 15-15s15 6.710938 15 15c0 46.699219-31.640625 87.234375-76.964844 98.558594-1.214844.304688-2.445312.453125-3.644531.453125zm0 0" fill="#ffbd86"/><path d="m270 15c0 8.402344-6.597656 15-15 15h-30c-8.402344 0-15 6.597656-15 15v30c0 8.402344-6.597656 15-15 15s-15-6.597656-15-15v-30c0-13.199219 5.699219-25.199219 15-33.300781 7.800781-7.199219 18.300781-11.699219 30-11.699219h30c8.402344 0 15 6.597656 15 15zm0 0" fill="#99503d"/><path d="m270 15c0 8.402344-6.597656 15-15 15h-30c-8.402344 0-15 6.597656-15 15v30c0 8.402344-6.597656 15-15 15v-78.300781c7.800781-7.199219 18.300781-11.699219 30-11.699219h30c8.402344 0 15 6.597656 15 15zm0 0" fill="#804231"/><path d="m195 60c-118.5 0-195 65.800781-195 166 0 8.402344 6.597656 15 15 15h360c8.402344 0 15-6.597656 15-15 0-100.199219-76.5-166-195-166zm0 0" fill="#b35f49"/><path d="m390 226c0 8.402344-6.597656 15-15 15h-180v-181c118.5 0 195 65.800781 195 166zm0 0" fill="#99503d"/></svg>